<?xml version="1.0" encoding="UTF-8"?>
<svg width="752pt" height="752pt" version="1.1" viewBox="0 0 752 752" xmlns="http://www.w3.org/2000/svg">
 <g>
  <path d="m376 257.61c-65.301 0-118.39 53.094-118.39 118.39s53.094 118.39 118.39 118.39c65.301 0 118.39-53.094 118.39-118.39s-53.094-118.39-118.39-118.39zm0 14.801c57.301 0 103.6 46.293 103.6 103.6 0 57.301-46.293 103.59-103.6 103.59-57.301 0-103.59-46.293-103.59-103.59 0-57.301 46.293-103.6 103.59-103.6z"/>
  <path d="m375.83 183.61c-2.1328 0.050781-4.1406 1.0195-5.5078 2.6602l-33.645 40.367-54.266-20.363v-0.003906c-2.2734-0.85156-4.8242-0.53516-6.8203 0.84766-1.9922 1.3867-3.1836 3.6602-3.1797 6.0898v52.668l-52.723 6.5898c-2.1016 0.26562-3.9844 1.4141-5.1836 3.1602-1.1953 1.7461-1.5859 3.9219-1.0742 5.9766l13.672 54.691-40.828 34.023v-0.003906c-1.6875 1.4062-2.6641 3.4922-2.6641 5.6875 0 2.1992 0.97656 4.2812 2.6641 5.6875l40.828 34.023-13.672 54.691c-0.51563 2.0547-0.12891 4.2344 1.0703 5.9844 1.1953 1.7461 3.0859 2.8984 5.1875 3.1641l52.723 6.5898v52.668c0 2.4258 1.1914 4.6992 3.1875 6.0781 1.9961 1.3828 4.5391 1.6953 6.8125 0.84375l54.266-20.352 33.645 40.355c1.4062 1.6836 3.4883 2.6562 5.6797 2.6562 2.1953 0 4.2734-0.97266 5.6797-2.6562l33.645-40.355 54.266 20.352h0.003906c2.2695 0.85156 4.8164 0.53906 6.8125-0.84375 1.9961-1.3789 3.1875-3.6523 3.1875-6.0781v-52.668l52.723-6.5898c2.1016-0.26563 3.9922-1.418 5.1875-3.1641 1.1992-1.75 1.5859-3.9297 1.0703-5.9844l-13.672-54.691 40.828-34.023c1.6875-1.4062 2.6641-3.4883 2.6641-5.6875 0-2.1953-0.97656-4.2812-2.6641-5.6875l-40.828-34.023 13.672-54.691v0.003907c0.51172-2.0547 0.12109-4.2305-1.0742-5.9766-1.1992-1.7461-3.0859-2.8945-5.1836-3.1602l-52.723-6.5898v-52.668c0.003906-2.4297-1.1875-4.7031-3.1836-6.0898-1.9961-1.3828-4.543-1.6992-6.8164-0.84766l-54.266 20.363-33.645-40.367-0.003906 0.003907c-1.4414-1.7344-3.5977-2.7148-5.8516-2.6602zm0.17188 18.949 31.316 37.578c2.0117 2.418 5.3359 3.2969 8.2812 2.1953l49.195-18.457v48.531c0 3.7305 2.7734 6.8789 6.4727 7.3438l50.914 6.3594-12.777 51.094 0.003906-0.003906c-0.69141 2.7578 0.25781 5.668 2.4414 7.4883l37.574 31.32-37.574 31.305c-2.1836 1.8203-3.1328 4.7305-2.4414 7.4883l12.777 51.105-50.914 6.3594h-0.003906c-3.6992 0.46484-6.4727 3.6133-6.4727 7.3438v48.504l-49.195-18.441c-2.9453-1.1055-6.2695-0.22266-8.2812 2.1953l-31.316 37.578-31.316-37.578h-0.003906c-2.0117-2.418-5.332-3.3008-8.2812-2.1953l-49.191 18.441v-48.504c0-3.7305-2.7734-6.8789-6.4727-7.3438l-50.914-6.3594 12.777-51.105h-0.003906c0.69141-2.7578-0.25781-5.668-2.4414-7.4883l-37.574-31.305 37.574-31.32c2.1836-1.8203 3.1328-4.7305 2.4414-7.4883l-12.777-51.094 50.914-6.3594 0.003906 0.003906c3.6992-0.46484 6.4727-3.6133 6.4727-7.3438v-48.531l49.195 18.457c2.9453 1.1016 6.2695 0.22266 8.2812-2.1953z"/>
 </g>
</svg>
