<?xml version="1.0" encoding="UTF-8"?>
<svg width="752pt" height="752pt" version="1.1" viewBox="0 0 752 752" xmlns="http://www.w3.org/2000/svg">
 <g>
  <path d="m501.83 405.7c0.125-0.36328 0.28516-0.72656 0.39844-1.0859 4.8438-14.879 3.6094-30.754-3.4766-44.707-7.0938-13.957-19.195-24.309-34.062-29.148-15.062-4.9219-31.59-3.3555-45.523 4.0039-18.316-21.531-44.801-33.852-73.195-33.852-25.191 0-48.812 9.5586-66.766 26.988-6.7578-2.2383-13.824-3.375-21.02-3.375-35.238 0-64.195 27.086-66.727 62.008-18.078 12.523-28.812 32.945-28.812 55.023 0 36.855 30.02 66.84 66.914 66.84h237c31.684 0 57.461-25.773 57.461-57.449 0.003906-17.684-8.2891-34.34-22.195-45.246zm-39.441-67.91c13 4.2344 23.566 13.273 29.762 25.469 6.0312 11.859 7.2188 25.316 3.3711 38.035-0.16406-0.097656-0.33984-0.15625-0.50781-0.25781-1.707-0.97266-3.4531-1.8711-5.2422-2.6602-0.16406-0.074218-0.32031-0.15234-0.49219-0.22656-1.8555-0.80078-3.7656-1.4805-5.6914-2.0781-0.35156-0.10547-0.70703-0.22266-1.0625-0.32031-1.9102-0.54688-3.8398-1.0078-5.8047-1.3516-0.33203-0.0625-0.67188-0.10547-1.0117-0.15625-2.0508-0.33203-4.125-0.58594-6.2188-0.69531-7.2383-11.52-18.504-20.234-31.398-24.289-0.82812-2.7656-1.7969-5.4648-2.8672-8.1289-0.35156-0.87891-0.77344-1.7266-1.1562-2.5898-0.76953-1.7617-1.5547-3.5234-2.4375-5.2344-0.50781-0.98828-1.0703-1.9492-1.6094-2.9141-0.86719-1.5508-1.75-3.082-2.707-4.5859-0.625-0.98828-1.2891-1.9531-1.9531-2.9141-0.52344-0.75781-0.98828-1.5508-1.5391-2.2969 11.895-5.9102 25.836-6.9727 38.566-2.8047zm4.1719 163.2h-237c-32.816 0-59.512-26.664-59.512-59.438 0-20.195 10.102-38.84 27.023-49.875 0.99609-0.65234 1.6172-1.7422 1.6719-2.9297 1.4336-31.867 27.547-56.828 59.449-56.828 7.1172 0 14.078 1.2422 20.695 3.6992 1.3633 0.50781 2.9062 0.16797 3.9258-0.87891 16.746-17.047 39.172-26.438 63.164-26.438 27.16 0 52.457 12.18 69.402 33.426 7.5469 9.3867 12.98 19.984 16.145 31.484 0.34375 1.2578 1.332 2.2383 2.5898 2.5859 12.535 3.4219 23.488 11.891 30.039 23.219 0.65234 1.1289 1.8438 1.8242 3.1406 1.8516 2.8828 0.050781 5.707 0.39844 8.5 0.92188 7.0039 1.3125 13.656 4.0273 19.531 8.1562h0.003907c13.34 9.4258 21.301 24.754 21.301 40.988 0 27.598-22.457 50.055-50.066 50.055z"/>
  <path d="m473.07 305.21c0.37891 0.125 0.76562 0.18359 1.1445 0.18359 1.5547 0 3.0039-0.99219 3.5156-2.5547l17.758-54.383c0.63672-1.9453-0.42578-4.0273-2.3672-4.6602-1.9375-0.63281-4.0273 0.42969-4.6602 2.3672l-17.758 54.383c-0.64062 1.9453 0.41797 4.0312 2.3672 4.6641z"/>
  <path d="m586.8 428.38-54.379-17.77c-1.9648-0.64062-4.0312 0.42969-4.668 2.3633-0.63672 1.9492 0.42578 4.0312 2.3633 4.668l54.379 17.773c0.38672 0.125 0.76953 0.18359 1.1484 0.18359 1.5547 0 3.0039-0.98828 3.5156-2.5508 0.64453-1.9453-0.41797-4.0312-2.3594-4.668z"/>
  <path d="m578.72 323.49c1.8203-0.92578 2.5508-3.1523 1.6211-4.9766-0.92578-1.8164-3.1523-2.5391-4.9766-1.6211l-51.023 25.898c-1.8203 0.92578-2.5508 3.1523-1.6211 4.9766 0.65625 1.2812 1.9531 2.0234 3.3047 2.0234 0.5625 0 1.1289-0.12891 1.6719-0.39844z"/>
  <path d="m402.88 308.62c0.65625 1.2812 1.9531 2.0234 3.3047 2.0234 0.55859 0 1.1289-0.12891 1.6719-0.39844 1.8203-0.92578 2.5508-3.1523 1.6211-4.9766l-25.895-51.027c-0.92578-1.8086-3.1367-2.5469-4.9766-1.6211-1.8203 0.92578-2.5508 3.1523-1.6211 4.9766z"/>
 </g>
</svg>
