<?xml version="1.0" encoding="UTF-8"?>
<svg width="752pt" height="752pt" version="1.1" viewBox="0 0 752 752" xmlns="http://www.w3.org/2000/svg">
 <g>
  <path d="m293.41 591.24c-1.4219 0-2.8906-0.33203-4.2148-0.99609-4.6875-2.3203-6.582-8.0508-4.2148-12.691l5.6836-11.414c2.3672-4.6875 8.0508-6.582 12.691-4.2148 4.6875 2.3203 6.582 8.0508 4.2148 12.691l-5.6836 11.414c-1.6094 3.2695-4.9727 5.2109-8.4766 5.2109z"/>
  <path d="m236.48 591.24c-1.4219 0-2.8906-0.33203-4.2148-0.99609-4.6875-2.3203-6.582-8.0508-4.2148-12.691l5.6836-11.414c2.3203-4.6875 8.0508-6.582 12.691-4.2148 4.6406 2.3672 6.582 8.0508 4.2148 12.691l-5.6836 11.414c-1.6562 3.2695-5.0195 5.2109-8.4766 5.2109z"/>
  <path d="m350.38 591.24c-1.4219 0-2.8906-0.33203-4.2148-0.99609-4.6875-2.3203-6.582-8.0508-4.2148-12.691l5.6836-11.414c2.3203-4.6875 8.0508-6.582 12.691-4.2148 4.6406 2.3672 6.582 8.0508 4.2148 12.691l-5.6836 11.414c-1.6562 3.2695-5.0195 5.2109-8.4766 5.2109z"/>
  <path d="m407.35 591.24c-1.4219 0-2.8906-0.33203-4.2148-0.99609-4.6875-2.3203-6.582-8.0508-4.2148-12.691l5.6836-11.414c2.3203-4.6875 8.0508-6.582 12.691-4.2148 4.6406 2.3672 6.582 8.0508 4.2148 12.691l-5.6836 11.414c-1.6562 3.2695-5.0195 5.2109-8.4766 5.2109z"/>
  <path d="m464.28 591.24c-1.4219 0-2.8906-0.33203-4.2148-0.99609-4.6875-2.3203-6.582-8.0508-4.2148-12.691l5.6836-11.414c2.3203-4.6875 8.0508-6.582 12.691-4.2148 4.6875 2.3203 6.582 8.0508 4.2148 12.691l-5.6836 11.414c-1.6562 3.2695-4.9727 5.2109-8.4766 5.2109z"/>
  <path d="m333.29 551.37c-1.4219 0-2.8906-0.33203-4.2148-0.99609-4.6875-2.3203-6.582-8.0508-4.2148-12.691l5.6836-11.414c2.3203-4.6875 8.0039-6.582 12.691-4.2148 4.6875 2.3203 6.582 8.0508 4.2148 12.691l-5.6836 11.414c-1.6562 3.2695-4.9727 5.2109-8.4766 5.2109z"/>
  <path d="m276.36 551.37c-1.4219 0-2.8906-0.33203-4.2148-0.99609-4.6875-2.3203-6.582-8.0508-4.2148-12.691l5.6836-11.414c2.3203-4.6875 8.0039-6.582 12.691-4.2148 4.6875 2.3203 6.582 8.0508 4.2148 12.691l-5.6836 11.414c-1.6562 3.2695-5.0195 5.2109-8.4766 5.2109z"/>
  <path d="m390.26 551.37c-1.4219 0-2.8906-0.33203-4.2148-0.99609-4.6875-2.3203-6.582-8.0508-4.2148-12.691l5.6836-11.414c2.3203-4.6875 8.0039-6.582 12.691-4.2148 4.6875 2.3203 6.582 8.0508 4.2148 12.691l-5.6836 11.414c-1.6602 3.2695-5.0195 5.2109-8.4766 5.2109z"/>
  <path d="m447.23 551.37c-1.4219 0-2.8906-0.33203-4.2148-0.99609-4.6875-2.3203-6.582-8.0508-4.2148-12.691l5.6836-11.414c2.3203-4.6875 8.0039-6.582 12.691-4.2148 4.6875 2.3203 6.582 8.0508 4.2148 12.691l-5.6836 11.414c-1.6562 3.2695-5.0195 5.2109-8.4766 5.2109z"/>
  <path d="m304.82 505.81c-1.4219 0-2.8906-0.33203-4.2148-0.99609-4.6875-2.3203-6.582-8.0508-4.2148-12.691l5.6836-11.414c2.3203-4.6875 8.0508-6.582 12.691-4.2148 4.6875 2.3203 6.582 8.0508 4.2148 12.691l-5.6836 11.414c-1.6562 3.2695-5.0156 5.2109-8.4766 5.2109z"/>
  <path d="m247.85 505.81c-1.4219 0-2.8906-0.33203-4.2148-0.99609-4.6875-2.3203-6.582-8.0508-4.2148-12.691l5.6836-11.414c2.3203-4.6875 8.0508-6.582 12.691-4.2148 4.6875 2.3203 6.582 8.0508 4.2148 12.691l-5.6836 11.414c-1.6562 3.2695-4.9727 5.2109-8.4766 5.2109z"/>
  <path d="m361.79 505.81c-1.4219 0-2.8906-0.33203-4.2148-0.99609-4.6875-2.3203-6.582-8.0508-4.2148-12.691l5.6836-11.414c2.3203-4.6875 8.0508-6.582 12.691-4.2148 4.6875 2.3203 6.582 8.0508 4.2148 12.691l-5.6836 11.414c-1.6562 3.2695-5.0195 5.2109-8.4766 5.2109z"/>
  <path d="m418.72 505.81c-1.4219 0-2.8906-0.33203-4.2148-0.99609-4.6875-2.3203-6.582-8.0508-4.2148-12.691l5.6836-11.414c2.3203-4.6875 8.0508-6.582 12.691-4.2148 4.6875 2.3203 6.582 8.0508 4.2148 12.691l-5.6836 11.414c-1.6562 3.2695-4.9727 5.2109-8.4766 5.2109z"/>
  <path d="m475.69 505.81c-1.4219 0-2.8906-0.33203-4.2148-0.99609-4.6875-2.3203-6.582-8.0508-4.2148-12.691l5.6836-11.414c2.3203-4.6875 8.0508-6.582 12.691-4.2148 4.6875 2.3203 6.582 8.0508 4.2148 12.691l-5.6836 11.414c-1.6562 3.2695-5.0195 5.2109-8.4766 5.2109z"/>
  <path d="m499.61 464.56h-247.26c-49.82 0-90.359-40.539-90.359-90.359 0-36.559 21.785-69.047 54.984-83.113-0.14062-1.8008-0.1875-3.5508-0.1875-5.2578 0-45.039 36.609-81.645 81.645-81.645 11.602 0 23.109 2.5117 33.672 7.3398 24.387-31.922 62.133-50.77 102.58-50.77 71.133 0 128.96 57.871 128.96 128.96 0 6.4414-0.47266 12.93-1.4688 19.32 17.758 17 27.801 40.445 27.801 65.117-0.003906 49.871-40.543 90.41-90.363 90.41zm-201.13-241.43c-34.57 0-62.703 28.129-62.703 62.703 0 3.0312 0.28516 6.2969 0.89844 9.9922 0.75781 4.5938-1.9883 9.0469-6.3945 10.512-29.5 9.6172-49.297 36.895-49.297 67.867 0 39.355 32.016 71.414 71.414 71.414h247.21c39.355 0 71.414-32.016 71.414-71.414 0-20.934-9.1875-40.773-25.195-54.414-2.6055-2.2266-3.7891-5.6836-3.1719-8.9961 1.375-6.9609 2.0352-14.066 2.0352-21.074 0-60.664-49.348-110.01-110.01-110.01-36.938 0-71.227 18.422-91.684 49.254-2.793 4.2148-8.3828 5.4922-12.691 2.9375-9.707-5.7383-20.695-8.7695-31.824-8.7695z"/>
 </g>
</svg>
